<svg xmlns="http://www.w3.org/2000/svg" viewBox="0 0 27.94 31.39"><defs><style>.cls-1{fill:#0074ff;}</style></defs><g id="Layer_2" data-name="Layer 2"><g id="Layer_1-2" data-name="Layer 1"><path class="cls-1" d="M22.83,20.29a6.84,6.84,0,0,1-5.52,2.82H14.12a2.55,2.55,0,0,1-2.39-1.68,7.86,7.86,0,0,1-1.29-.51A8.72,8.72,0,0,1,8,19.15a10.24,10.24,0,0,0-8,10v.64a1.59,1.59,0,0,0,1.6,1.59H26.35a1.59,1.59,0,0,0,1.59-1.59v-.64A10.23,10.23,0,0,0,22.83,20.29Z"/><path class="cls-1" d="M6.35,15.86a1.82,1.82,0,0,0,1.59-.94L8,15v0a7.11,7.11,0,0,0,4,4.21A2.54,2.54,0,0,1,14.12,18h3.19a1.85,1.85,0,0,0,.87-.23,3.81,3.81,0,0,0,1-1.19A9.57,9.57,0,0,0,20,14.92a2,2,0,0,0,.5.57v.78a3.19,3.19,0,0,1-3.19,3.2H14.12a1.09,1.09,0,1,0,0,2.18h3.19a5.38,5.38,0,0,0,5.37-5.38v-.78A1.79,1.79,0,0,0,23.41,14V9.49A1.83,1.83,0,0,0,22.66,8,8.72,8.72,0,0,0,5.28,8a1.83,1.83,0,0,0-.75,1.47V14A1.82,1.82,0,0,0,6.35,15.86ZM14,2.18a6.54,6.54,0,0,1,6.5,5.89A1.75,1.75,0,0,0,20,8.7a6.6,6.6,0,0,0-6-4.55A6.63,6.63,0,0,0,8,8.69H8a1.75,1.75,0,0,0-.51-.63A6.55,6.55,0,0,1,14,2.18Z"/></g></g></svg>