<svg xmlns="http://www.w3.org/2000/svg" viewBox="0 0 37.57 26.3"><defs><style>.cls-1{fill:red;}.cls-2{fill:#fff;}</style></defs><g id="Layer_2" data-name="Layer 2"><g id="Layer_1-2" data-name="Layer 1"><path class="cls-1" d="M36.79,4.12A4.72,4.72,0,0,0,33.48.8C30.54,0,18.78,0,18.78,0S7,0,4.08.77A4.85,4.85,0,0,0,.77,4.12c-.77,2.94-.77,9-.77,9s0,6.13.77,9A4.72,4.72,0,0,0,4.08,25.5c3,.8,14.7.8,14.7.8s11.76,0,14.7-.77a4.69,4.69,0,0,0,3.31-3.31c.78-2.94.78-9,.78-9S37.6,7.06,36.79,4.12Z"/><path class="cls-2" d="M15,18.78l9.78-5.63L15,7.52Z"/></g></g></svg>