<svg xmlns="http://www.w3.org/2000/svg" viewBox="0 0 38.48 28.71"><defs><style>.cls-1{fill:#0074ff;}</style></defs><g id="Layer_2" data-name="Layer 2"><g id="Layer_1-2" data-name="Layer 1"><path class="cls-1" d="M3.17,22.89V6.18L.78,6.1A.74.74,0,0,0,0,6.85V26.31a.75.75,0,0,0,.71.76,77.91,77.91,0,0,1,14.2,1.64A25.46,25.46,0,0,0,4.1,24a1.13,1.13,0,0,1-.93-1.11Z"/><path class="cls-1" d="M35.31,6V22.89A1.13,1.13,0,0,1,34.38,24a25.46,25.46,0,0,0-10.81,4.71,77.62,77.62,0,0,1,14.2-1.64.75.75,0,0,0,.71-.76V6.77A.76.76,0,0,0,37.73,6L35.31,6Z"/><path class="cls-1" d="M5.44.75V22a26.9,26.9,0,0,1,12.67,6.51V6.21C15.48,2.91,10.61.8,6.33,0a.76.76,0,0,0-.89.74ZM14.84,18a1.13,1.13,0,0,1-1.56.37,11.57,11.57,0,0,0-3.52-1.49,1.13,1.13,0,0,1-.92-1.31,1.12,1.12,0,0,1,1.3-.92,13.27,13.27,0,0,1,4.32,1.79A1.13,1.13,0,0,1,14.84,18Zm0-7.16a1.14,1.14,0,0,1-1.58.28A9.48,9.48,0,0,0,9.76,9.72a1.13,1.13,0,0,1,.38-2.23,11.6,11.6,0,0,1,4.44,1.82,1.13,1.13,0,0,1,.29,1.57Z"/><path class="cls-1" d="M32.15,0C27.88.8,23,2.9,20.37,6.21V28.47A26.9,26.9,0,0,1,33,22V.75A.76.76,0,0,0,32.15,0ZM28.71,16.92a11.8,11.8,0,0,0-3.52,1.49A1.13,1.13,0,1,1,24,16.48a13.27,13.27,0,0,1,4.32-1.79,1.13,1.13,0,1,1,.37,2.23Zm0-7.2a9.5,9.5,0,0,0-3.52,1.44,1.13,1.13,0,1,1-1.3-1.85,11.72,11.72,0,0,1,4.45-1.82,1.13,1.13,0,0,1,1.3.93,1.12,1.12,0,0,1-.92,1.3Z"/></g></g></svg>