<svg xmlns="http://www.w3.org/2000/svg" viewBox="0 0 18.99 17.42"><defs><style>.cls-1{fill:#0f1e40;}</style></defs><g id="Layer_2" data-name="Layer 2"><g id="Layer_1-2" data-name="Layer 1"><path class="cls-1" d="M8.7,17.42a8.71,8.71,0,1,1,4.7-16,.6.6,0,0,1,.18.82.61.61,0,0,1-.82.18,7.52,7.52,0,1,0,3.46,6.33,6.12,6.12,0,0,0,0-.74.59.59,0,0,1,.54-.64.58.58,0,0,1,.64.53,7.94,7.94,0,0,1,0,.85A8.71,8.71,0,0,1,8.7,17.42Z"/><path class="cls-1" d="M9.69,10.69a.59.59,0,0,1-.42-.18L5.71,7a.59.59,0,0,1,.84-.84L9.69,9.25,18,1a.58.58,0,0,1,.84,0,.58.58,0,0,1,0,.84l-8.7,8.7A.59.59,0,0,1,9.69,10.69Z"/></g></g></svg>