<svg xmlns="http://www.w3.org/2000/svg" xmlns:xlink="http://www.w3.org/1999/xlink" viewBox="0 0 352.52 87"><defs><style>.cls-1{fill:url(#linear-gradient);}.cls-2{fill:url(#linear-gradient-2);}.cls-3{fill:url(#linear-gradient-3);}.cls-4{fill:url(#linear-gradient-4);}.cls-5{fill:url(#linear-gradient-5);}.cls-6{fill:url(#linear-gradient-8);}.cls-7{fill:#a24689;}.cls-8{fill:#8f8f8f;}.cls-9{fill:#e4a900;}.cls-10{fill:#fff;}.cls-11{fill:none;stroke-miterlimit:10;stroke:url(#linear-gradient-9);}</style><linearGradient id="linear-gradient" x1="-0.79" y1="49.56" x2="160.33" y2="49.56" gradientUnits="userSpaceOnUse"><stop offset="0" stop-color="#083fda"/><stop offset="1" stop-color="#087dda"/></linearGradient><linearGradient id="linear-gradient-2" x1="-0.79" y1="36.81" x2="160.33" y2="36.81" xlink:href="#linear-gradient"/><linearGradient id="linear-gradient-3" x1="-0.79" y1="41.09" x2="160.33" y2="41.09" xlink:href="#linear-gradient"/><linearGradient id="linear-gradient-4" x1="-0.79" y1="41.35" x2="160.33" y2="41.35" xlink:href="#linear-gradient"/><linearGradient id="linear-gradient-5" x1="-0.79" y1="46.32" x2="160.33" y2="46.32" xlink:href="#linear-gradient"/><linearGradient id="linear-gradient-8" x1="-0.79" y1="20.65" x2="160.33" y2="20.65" xlink:href="#linear-gradient"/><linearGradient id="linear-gradient-9" x1="190" y1="87" x2="190" gradientUnits="userSpaceOnUse"><stop offset="0" stop-color="#c8d4db" stop-opacity="0"/><stop offset="0.03" stop-color="#c8d4db" stop-opacity="0.15"/><stop offset="0.06" stop-color="#c8d4db" stop-opacity="0.35"/><stop offset="0.11" stop-color="#c8d4db" stop-opacity="0.52"/><stop offset="0.15" stop-color="#c8d4db" stop-opacity="0.67"/><stop offset="0.2" stop-color="#c8d4db" stop-opacity="0.79"/><stop offset="0.25" stop-color="#c8d4db" stop-opacity="0.88"/><stop offset="0.31" stop-color="#c8d4db" stop-opacity="0.95"/><stop offset="0.38" stop-color="#c8d4db" stop-opacity="0.99"/><stop offset="0.5" stop-color="#c8d4db"/><stop offset="0.62" stop-color="#c8d4db" stop-opacity="0.99"/><stop offset="0.69" stop-color="#c8d4db" stop-opacity="0.95"/><stop offset="0.75" stop-color="#c8d4db" stop-opacity="0.88"/><stop offset="0.8" stop-color="#c8d4db" stop-opacity="0.79"/><stop offset="0.85" stop-color="#c8d4db" stop-opacity="0.67"/><stop offset="0.89" stop-color="#c8d4db" stop-opacity="0.52"/><stop offset="0.94" stop-color="#c8d4db" stop-opacity="0.35"/><stop offset="0.97" stop-color="#c8d4db" stop-opacity="0.15"/><stop offset="1" stop-color="#c8d4db" stop-opacity="0"/></linearGradient></defs><title>Asset 1</title><g id="Layer_2" data-name="Layer 2"><g id="Layer_1-2" data-name="Layer 1"><path class="cls-1" d="M27.57,40.57c0,.32-1.27,7.56-9.1,14.33-3.33,2.81-6.85,4.24-10,4.24a8.47,8.47,0,0,1-5.26-1.7C.29,55.18-1.61,50.11,1.88,42.51a.53.53,0,0,1,.63-.28.53.53,0,0,1,.32.59s-1.07,5.22,1.27,8.39a6.37,6.37,0,0,0,4.67,2.49c.12,0,10.13.91,17.89-13.46a.51.51,0,0,1,.59-.24A.49.49,0,0,1,27.57,40.57Z"/><path class="cls-2" d="M10.67,48.76a.24.24,0,0,1-.16,0,.45.45,0,0,1-.44-.24.48.48,0,0,1,.12-.63,35.27,35.27,0,0,0,8.75-11.12s2.22-4.87.79-7.16a2.79,2.79,0,0,0-2.49-1.19c-.08,0-2.22-.24-6.17,2.65a.49.49,0,0,1-.67-.08.54.54,0,0,1,0-.67c.24-.2,5.22-5.54,10-5.54a3.94,3.94,0,0,1,4.24,3.36C25.79,34,19.1,45.28,10.67,48.76Z"/><path class="cls-3" d="M68.94,30a6.49,6.49,0,0,0-2.64-1.77,11,11,0,0,0-3.81-.6,10.27,10.27,0,0,0-4.63,1,9.4,9.4,0,0,0-3.45,3h0a.34.34,0,0,1-.58,0h0a6.6,6.6,0,0,0-2.74-3,9,9,0,0,0-4.43-1,11,11,0,0,0-4.32.81,8.7,8.7,0,0,0-2.88,2,.58.58,0,0,1-1-.35l-.1-1.56a.4.4,0,0,0-.4-.38H33.61a.4.4,0,0,0-.4.4V54.21a.4.4,0,0,0,.4.4h4.64a.4.4,0,0,0,.4-.4V35.92a2.79,2.79,0,0,1,.51-1.62,5.77,5.77,0,0,1,5-2.39A5.32,5.32,0,0,1,48,33.21,5.36,5.36,0,0,1,49.44,37h0V54.21a.4.4,0,0,0,.4.4h4.63a.4.4,0,0,0,.4-.4l0-17.51a2.78,2.78,0,0,1,.17-1,6.15,6.15,0,0,1,1.8-2.62,5.45,5.45,0,0,1,3.63-1.2,5.3,5.3,0,0,1,4,1.31,5.74,5.74,0,0,1,1.22,4v17a.4.4,0,0,0,.4.4h4.63a.4.4,0,0,0,.4-.4V37.07C71.08,33.94,70.35,31.54,68.94,30Z"/><path class="cls-4" d="M82.48,28.09H77.84a.4.4,0,0,0-.4.4V54.21a.4.4,0,0,0,.4.4h4.64a.4.4,0,0,0,.4-.4V28.49A.4.4,0,0,0,82.48,28.09Z"/><path class="cls-5" d="M111.65,35.47a14,14,0,0,0-.86-2.33,11.33,11.33,0,0,0-1.2-2,8.86,8.86,0,0,0-3.25-2.68,10.74,10.74,0,0,0-8.07-.21,8.21,8.21,0,0,0-2.93,2,.59.59,0,0,1-1-.34l-.14-1.51a.4.4,0,0,0-.4-.37H89.56a.4.4,0,0,0-.4.4V64.66a.4.4,0,0,0,.4.4H94.2a.4.4,0,0,0,.4-.4V53.13a.59.59,0,0,1,1-.42,8.31,8.31,0,0,0,2.88,1.81,10.42,10.42,0,0,0,3.64.61,9.47,9.47,0,0,0,4.19-.91,9.12,9.12,0,0,0,3.24-2.72,12.8,12.8,0,0,0,2.1-4.29,20.5,20.5,0,0,0,.7-5.58v-.38A22,22,0,0,0,111.65,35.47Zm-6.43,13a5.61,5.61,0,0,1-4.85,2.5,6,6,0,0,1-5.29-2.6,2.78,2.78,0,0,1-.49-1.58V36a2.76,2.76,0,0,1,.5-1.59,6,6,0,0,1,5.23-2.52,5.62,5.62,0,0,1,4.92,2.54,11.73,11.73,0,0,1,1.68,6.66C106.93,44.36,106.36,46.82,105.22,48.44Z"/><path class="cls-3" d="M131.17,27.73h0a6.44,6.44,0,0,0-1.52-.16,6.65,6.65,0,0,0-3.07.7,6.89,6.89,0,0,0-2.39,2.1.59.59,0,0,1-1.06-.32l-.08-1.59a.4.4,0,0,0-.4-.38h-4.39a.4.4,0,0,0-.4.4V54.21a.4.4,0,0,0,.4.4h4.63a.4.4,0,0,0,.4-.4V37a2.81,2.81,0,0,1,.43-1.49c1.11-1.78,3-2.67,5.57-2.67a15.89,15.89,0,0,1,1.71.09.4.4,0,0,0,.31-.1.39.39,0,0,0,.13-.3l0-4.36A.4.4,0,0,0,131.17,27.73Z"/><path class="cls-4" d="M157.41,48.68a15.93,15.93,0,0,0,1.51-7l0-1.42a16.2,16.2,0,0,0-1-5.17,12.14,12.14,0,0,0-2.57-4,10.93,10.93,0,0,0-3.84-2.58,13.16,13.16,0,0,0-4.87-.86,12.28,12.28,0,0,0-6.42,1.68A11.3,11.3,0,0,0,135.83,34a15.8,15.8,0,0,0-1.55,7.06v.3a17.64,17.64,0,0,0,.85,5.64,12.37,12.37,0,0,0,2.53,4.36,10.86,10.86,0,0,0,3.91,2.79,13.12,13.12,0,0,0,5.06.93,12.37,12.37,0,0,0,6.48-1.69A11.16,11.16,0,0,0,157.41,48.68Zm-5.69-.3h0a5.93,5.93,0,0,1-5.1,2.56,6,6,0,0,1-5.11-2.52,11.34,11.34,0,0,1-1.8-6.78c0-3.21.61-5.67,1.83-7.31a6.32,6.32,0,0,1,10.12,0,11.2,11.2,0,0,1,1.84,6.74C153.51,44.27,152.91,46.72,151.72,48.38Z"/><path class="cls-6" d="M82.88,20.52a2.72,2.72,0,1,1-2.59-2.59A2.72,2.72,0,0,1,82.88,20.52Z"/><path class="cls-7" d="M236.86,21.9a14.66,14.66,0,0,1,6.07,1.28,16.54,16.54,0,0,1,8.46,8.5,15.6,15.6,0,0,1,0,12.3A16.48,16.48,0,0,1,248,49a15.64,15.64,0,0,1-11.25,4.66,16.12,16.12,0,0,1-6.17-1.18,15.46,15.46,0,0,1-5.05-3.31,15.65,15.65,0,0,1-4.66-11.32,15.44,15.44,0,0,1,4.59-11.12,16.75,16.75,0,0,1,5.08-3.41A17.15,17.15,0,0,1,236.86,21.9Zm-.07,6.49a9.4,9.4,0,0,0-3.64.72,9.23,9.23,0,0,0-3,2,9.76,9.76,0,0,0-2,3,9.14,9.14,0,0,0-.75,3.74,9,9,0,0,0,.75,3.64,10.05,10.05,0,0,0,2,3.05,9.36,9.36,0,0,0,3,2.07,9.15,9.15,0,0,0,7.28,0,9.37,9.37,0,0,0,3-2.07,10.08,10.08,0,0,0,2-3.05,9.06,9.06,0,0,0,.75-3.64,9.81,9.81,0,0,0-2.76-6.53,9.71,9.71,0,0,0-6.63-2.92h-.07Z"/><path class="cls-8" d="M282.52,11.79a2.74,2.74,0,0,1,2.1.89,2.84,2.84,0,0,1,1,2.07v23a14.58,14.58,0,0,1-1.31,6.1,16.5,16.5,0,0,1-3.54,5.05,17.57,17.57,0,0,1-5.08,3.44,14.52,14.52,0,0,1-6,1.28,15.22,15.22,0,0,1-6.1-1.25A16.06,16.06,0,0,1,258.51,49a16.53,16.53,0,0,1-3.45-5.05,15.05,15.05,0,0,1-1.28-6.17,15.77,15.77,0,0,1,1.15-6.23,16.59,16.59,0,0,1,3.45-5.05v.07a17,17,0,0,1,5.35-3.48,15.86,15.86,0,0,1,6-1.18,19.53,19.53,0,0,1,4.36.59,14.94,14.94,0,0,1,5,2.3V15.07a3,3,0,0,1,.26-1.25,4.26,4.26,0,0,1,.69-1.08,2.9,2.9,0,0,1,1-.75,2.27,2.27,0,0,1,1.18-.2h.26Zm-3.41,26a8.52,8.52,0,0,0-.75-3.48,10.34,10.34,0,0,0-2.07-3.05,10.12,10.12,0,0,0-3-2.13,8.5,8.5,0,0,0-3.61-.79,9.05,9.05,0,0,0-3.64.75A9.52,9.52,0,0,0,261,34.12a9.25,9.25,0,0,0,0,7.32,9.74,9.74,0,0,0,2,3,9.64,9.64,0,0,0,3,2,9,9,0,0,0,3.64.75,8.81,8.81,0,0,0,3.61-.75,10.18,10.18,0,0,0,3-2,9.5,9.5,0,0,0,2.07-3A9,9,0,0,0,279.11,37.77Z"/><path class="cls-8" d="M303.39,21.9a14.66,14.66,0,0,1,6.07,1.28,16.55,16.55,0,0,1,8.46,8.5A15.61,15.61,0,0,1,318,44a16.52,16.52,0,0,1-3.38,5,15.64,15.64,0,0,1-11.25,4.66,16.12,16.12,0,0,1-6.17-1.18,15.48,15.48,0,0,1-5.05-3.31,15.66,15.66,0,0,1-4.66-11.32A15.44,15.44,0,0,1,292,26.72a16.75,16.75,0,0,1,5.08-3.41A17.15,17.15,0,0,1,303.39,21.9Zm-.07,6.49a9.4,9.4,0,0,0-3.64.72,9.22,9.22,0,0,0-3,2,9.75,9.75,0,0,0-2,3,9.14,9.14,0,0,0-.75,3.74,9,9,0,0,0,.75,3.64,10,10,0,0,0,2,3.05,9.35,9.35,0,0,0,3,2.07,9.15,9.15,0,0,0,7.28,0,9.37,9.37,0,0,0,3-2.07,10.09,10.09,0,0,0,2-3.05,9.06,9.06,0,0,0,.75-3.64A9.82,9.82,0,0,0,310,31.31a9.71,9.71,0,0,0-6.63-2.92h-.07Z"/><path class="cls-8" d="M336.71,21.9a14.67,14.67,0,0,1,6.07,1.28,16.54,16.54,0,0,1,8.46,8.5,15.61,15.61,0,0,1,0,12.3,16.5,16.5,0,0,1-3.38,5,15.64,15.64,0,0,1-11.25,4.66,16.12,16.12,0,0,1-6.17-1.18,15.44,15.44,0,0,1-5.05-3.31,15.65,15.65,0,0,1-4.66-11.32,15.44,15.44,0,0,1,4.59-11.12,16.77,16.77,0,0,1,5.08-3.41A17.14,17.14,0,0,1,336.71,21.9Zm-.07,6.49a9.41,9.41,0,0,0-3.64.72,9.22,9.22,0,0,0-3,2,9.76,9.76,0,0,0-2,3,9.15,9.15,0,0,0-.75,3.74,9,9,0,0,0,.75,3.64,10.05,10.05,0,0,0,2,3.05,9.35,9.35,0,0,0,3,2.07,9.16,9.16,0,0,0,7.28,0,9.36,9.36,0,0,0,3-2.07,10.07,10.07,0,0,0,2-3.05,9.06,9.06,0,0,0,.75-3.64,9.81,9.81,0,0,0-2.76-6.53,9.71,9.71,0,0,0-6.63-2.92h-.07Z"/><path class="cls-9" d="M352.52,76.1a1.13,1.13,0,0,1-1.13,1.13H281.13A1.13,1.13,0,0,1,280,76.1V60.46a1.13,1.13,0,0,1,1.13-1.13H351.4a1.13,1.13,0,0,1,1.13,1.13V76.1Z"/><path class="cls-10" d="M290.85,71.12a5,5,0,0,0,.56,0,3.6,3.6,0,0,0,.49-.09,3.37,3.37,0,0,0,.43-.14l.4-.19V69h-1.18a.22.22,0,0,1-.16-.06.19.19,0,0,1-.06-.14v-.58h2.33v2.92a4.19,4.19,0,0,1-.6.36,4.09,4.09,0,0,1-.66.26,4.81,4.81,0,0,1-.76.15,7.05,7.05,0,0,1-.88.05,4,4,0,0,1-1.52-.28,3.48,3.48,0,0,1-1.19-.8,3.61,3.61,0,0,1-.78-1.23,4.31,4.31,0,0,1-.28-1.57,4.41,4.41,0,0,1,.27-1.59,3.41,3.41,0,0,1,2-2,4.39,4.39,0,0,1,1.61-.28,5,5,0,0,1,.84.07,4,4,0,0,1,.72.19,3.35,3.35,0,0,1,.61.3,3.77,3.77,0,0,1,.52.4l-.29.47a.27.27,0,0,1-.23.14.37.37,0,0,1-.19-.06l-.3-.18a2.6,2.6,0,0,0-.4-.2,3.29,3.29,0,0,0-.56-.17,3.67,3.67,0,0,0-.76-.07,3.09,3.09,0,0,0-1.16.21,2.45,2.45,0,0,0-.89.6,2.66,2.66,0,0,0-.56.94,3.72,3.72,0,0,0-.2,1.24,3.77,3.77,0,0,0,.2,1.29,2.72,2.72,0,0,0,.58,1,2.48,2.48,0,0,0,.88.6A3,3,0,0,0,290.85,71.12Z"/><path class="cls-10" d="M297.27,66.41a2.77,2.77,0,0,1,1.06.2,2.24,2.24,0,0,1,.81.56,2.47,2.47,0,0,1,.51.87,3.78,3.78,0,0,1,0,2.29,2.48,2.48,0,0,1-.51.87,2.22,2.22,0,0,1-.81.55,3,3,0,0,1-2.13,0,2.23,2.23,0,0,1-.81-.55,2.48,2.48,0,0,1-.51-.87,3.71,3.71,0,0,1,0-2.29,2.47,2.47,0,0,1,.51-.87,2.27,2.27,0,0,1,.81-.56A2.77,2.77,0,0,1,297.27,66.41Zm0,4.79a1.38,1.38,0,0,0,1.19-.53,3,3,0,0,0,0-3,1.38,1.38,0,0,0-1.19-.54,1.65,1.65,0,0,0-.7.14,1.31,1.31,0,0,0-.5.4,1.76,1.76,0,0,0-.3.64,3.78,3.78,0,0,0,0,1.71,1.74,1.74,0,0,0,.3.63,1.32,1.32,0,0,0,.5.39A1.65,1.65,0,0,0,297.27,71.2Z"/><path class="cls-10" d="M302,64.05v7.81h-.94V64.05Z"/><path class="cls-10" d="M307.49,71.87a.24.24,0,0,1-.25-.2l-.09-.65a2.83,2.83,0,0,1-.79.67,2,2,0,0,1-1,.25,1.94,1.94,0,0,1-.84-.18,1.73,1.73,0,0,1-.64-.52,2.48,2.48,0,0,1-.41-.86,4.42,4.42,0,0,1-.14-1.18,3.7,3.7,0,0,1,.16-1.11,2.69,2.69,0,0,1,.46-.89,2.1,2.1,0,0,1,1.71-.81,1.94,1.94,0,0,1,.84.17,2,2,0,0,1,.63.47v-3h.94v7.81h-.56Zm-1.83-.69a1.52,1.52,0,0,0,.81-.21,2.33,2.33,0,0,0,.64-.6v-2.6a1.5,1.5,0,0,0-.57-.49,1.65,1.65,0,0,0-.69-.14,1.36,1.36,0,0,0-1.16.54,2.5,2.5,0,0,0-.4,1.53,3.89,3.89,0,0,0,.09.9,1.73,1.73,0,0,0,.27.62,1,1,0,0,0,.43.35A1.43,1.43,0,0,0,305.66,71.18Z"/><path class="cls-10" d="M313,69v2.84h-1v-7.6h2.24a4.21,4.21,0,0,1,1.25.17,2.41,2.41,0,0,1,.88.47,1.91,1.91,0,0,1,.52.74,2.62,2.62,0,0,1,.17,1,2.47,2.47,0,0,1-.19,1,2.09,2.09,0,0,1-.54.76,2.52,2.52,0,0,1-.89.5,3.82,3.82,0,0,1-1.21.18Zm0-.82h1.22a2.37,2.37,0,0,0,.78-.12,1.59,1.59,0,0,0,.56-.33,1.35,1.35,0,0,0,.34-.5,1.71,1.71,0,0,0,.12-.64,1.46,1.46,0,0,0-.45-1.14,2,2,0,0,0-1.36-.41H313v3.13Z"/><path class="cls-10" d="M321.85,71.87h-.42a.5.5,0,0,1-.22,0,.23.23,0,0,1-.11-.18l-.11-.5q-.21.19-.41.34a2.37,2.37,0,0,1-.42.25,2.2,2.2,0,0,1-.47.16,2.75,2.75,0,0,1-.56.05,1.92,1.92,0,0,1-.59-.09,1.34,1.34,0,0,1-.47-.26,1.26,1.26,0,0,1-.32-.44,1.56,1.56,0,0,1-.12-.64,1.19,1.19,0,0,1,.17-.61,1.54,1.54,0,0,1,.56-.52,3.67,3.67,0,0,1,1-.38,6.93,6.93,0,0,1,1.54-.15v-.42a1.46,1.46,0,0,0-.27-1,1,1,0,0,0-.79-.32,1.68,1.68,0,0,0-.58.09,2.24,2.24,0,0,0-.41.2l-.3.2a.43.43,0,0,1-.25.09.28.28,0,0,1-.17-.05.39.39,0,0,1-.11-.12l-.17-.3a3.06,3.06,0,0,1,1-.64A3,3,0,0,1,320,66.4a2,2,0,0,1,.8.15,1.65,1.65,0,0,1,.59.41,1.76,1.76,0,0,1,.36.64,2.67,2.67,0,0,1,.12.83v3.44Zm-2.45-.58a1.94,1.94,0,0,0,.46-.05,1.8,1.8,0,0,0,.39-.14,2,2,0,0,0,.35-.23,3,3,0,0,0,.33-.3V69.46a6.31,6.31,0,0,0-1.11.08,3.12,3.12,0,0,0-.74.22,1,1,0,0,0-.42.31.68.68,0,0,0-.13.41.89.89,0,0,0,.07.37.69.69,0,0,0,.19.25.72.72,0,0,0,.28.14A1.25,1.25,0,0,0,319.4,71.29Z"/><path class="cls-10" d="M323.28,71.87V66.49h.54a.3.3,0,0,1,.21.06.35.35,0,0,1,.08.2l.06.84a2.46,2.46,0,0,1,.68-.88,1.61,1.61,0,0,1,1.35-.27,1.39,1.39,0,0,1,.33.14l-.12.71a.16.16,0,0,1-.16.13.82.82,0,0,1-.23-.05,1.44,1.44,0,0,0-.43-.05,1.22,1.22,0,0,0-.82.29,2.14,2.14,0,0,0-.55.83v3.42Z"/><path class="cls-10" d="M329.18,72a1.29,1.29,0,0,1-1-.36,1.42,1.42,0,0,1-.34-1V67.28h-.65a.21.21,0,0,1-.14-.05.19.19,0,0,1-.06-.16V66.7l.88-.11.22-1.66a.2.2,0,0,1,.07-.13.22.22,0,0,1,.15,0h.48V66.6h1.54v.68h-1.54v3.22a.69.69,0,0,0,.16.5.57.57,0,0,0,.42.16.75.75,0,0,0,.26,0l.19-.09L330,71a.18.18,0,0,1,.1,0,.16.16,0,0,1,.13.09l.28.45a1.75,1.75,0,0,1-.59.36A2,2,0,0,1,329.18,72Z"/><path class="cls-10" d="M331.51,71.87V66.49h.56a.24.24,0,0,1,.25.2l.07.58a3,3,0,0,1,.78-.63,2,2,0,0,1,1-.24,1.93,1.93,0,0,1,.78.15,1.51,1.51,0,0,1,.56.41,1.83,1.83,0,0,1,.34.64,2.79,2.79,0,0,1,.12.83v3.42H335V68.44a1.45,1.45,0,0,0-.28-.95,1,1,0,0,0-.85-.34,1.59,1.59,0,0,0-.78.2,2.58,2.58,0,0,0-.67.55v4h-.94Z"/><path class="cls-10" d="M339.54,66.41a2.4,2.4,0,0,1,.89.16,2,2,0,0,1,.71.47,2.13,2.13,0,0,1,.46.75,2.91,2.91,0,0,1,.17,1,.62.62,0,0,1,0,.3.2.2,0,0,1-.18.07H338a3,3,0,0,0,.14.89,1.81,1.81,0,0,0,.35.63,1.4,1.4,0,0,0,.53.38,1.83,1.83,0,0,0,.69.12,2,2,0,0,0,.61-.08,2.91,2.91,0,0,0,.44-.18l.31-.18a.41.41,0,0,1,.21-.08.21.21,0,0,1,.18.09l.27.34a1.79,1.79,0,0,1-.42.37,2.6,2.6,0,0,1-.52.26,3.31,3.31,0,0,1-.58.15,3.5,3.5,0,0,1-.59.05,2.73,2.73,0,0,1-1-.19,2.25,2.25,0,0,1-.81-.55,2.53,2.53,0,0,1-.53-.9,3.65,3.65,0,0,1-.19-1.23A3.14,3.14,0,0,1,337.2,68a2.47,2.47,0,0,1,.5-.85,2.28,2.28,0,0,1,.79-.56A2.6,2.6,0,0,1,339.54,66.41Zm0,.7a1.45,1.45,0,0,0-1.08.39,1.86,1.86,0,0,0-.49,1.1h2.92a1.92,1.92,0,0,0-.09-.6,1.34,1.34,0,0,0-.26-.47,1.18,1.18,0,0,0-.43-.31A1.45,1.45,0,0,0,339.56,67.1Z"/><path class="cls-10" d="M343,71.87V66.49h.54a.3.3,0,0,1,.21.06.35.35,0,0,1,.08.2l.06.84a2.46,2.46,0,0,1,.68-.88,1.61,1.61,0,0,1,1.35-.27,1.39,1.39,0,0,1,.33.14l-.12.71a.16.16,0,0,1-.16.13.82.82,0,0,1-.23-.05,1.44,1.44,0,0,0-.43-.05,1.22,1.22,0,0,0-.82.29,2.14,2.14,0,0,0-.55.83v3.42Z"/><line class="cls-11" x1="190" x2="190" y2="87"/></g></g></svg>