<svg xmlns="http://www.w3.org/2000/svg" viewBox="0 0 25.06 25.06"><defs><style>.cls-1{fill:#0f1e40;}</style></defs><g id="Layer_2" data-name="Layer 2"><g id="Layer_1-2" data-name="Layer 1"><path class="cls-1" d="M22.5,12.5a2.15,2.15,0,0,0-1.14-1.39V9.37a9.21,9.21,0,0,0-9-9.37,9.21,9.21,0,0,0-9,9.37v2a2.21,2.21,0,0,0-.73,1.13,2.67,2.67,0,0,0,0,5.34,2.19,2.19,0,0,0,2.1,1.62H6.11a.69.69,0,0,0,.69-.7V11.58a.69.69,0,0,0-.69-.7H4.68V9.37a7.83,7.83,0,0,1,7.64-8,7.83,7.83,0,0,1,7.65,8v1.51H19a.69.69,0,0,0-.69.7v7.18a.69.69,0,0,0,.69.7h.81v.29A3.84,3.84,0,0,1,16,23.67H13v-.11a.7.7,0,0,0-1.39,0v.8a.7.7,0,0,0,.7.7H16a5.23,5.23,0,0,0,5.13-5.32v-.43a2.18,2.18,0,0,0,1.35-1.48,2.67,2.67,0,0,0,0-5.33ZM5.41,18.06H4.66a.78.78,0,0,1-.78-.78V13.05a.78.78,0,0,1,.78-.78h.75ZM2.49,16.44a1.28,1.28,0,0,1,0-2.54Zm20.08,0V13.89a1.29,1.29,0,0,1,0,2.55Zm-1.39.84a.79.79,0,0,1-.78.79h-.75v-5.8h.75a.78.78,0,0,1,.78.79Z"/></g></g></svg>