<svg xmlns="http://www.w3.org/2000/svg" viewBox="0 0 31.3 31.3"><defs><style>.cls-1{fill:#d2e9ff;}.cls-2{fill:#0068ff;}</style></defs><g id="Layer_2" data-name="Layer 2"><g id="Layer_1-2" data-name="Layer 1"><path class="cls-1" d="M29.2,7.79A15.63,15.63,0,0,0,23.5,2.1,15.26,15.26,0,0,0,15.65,0,15.32,15.32,0,0,0,7.79,2.1,15.68,15.68,0,0,0,2.1,7.79,15.32,15.32,0,0,0,0,15.65,15.26,15.26,0,0,0,2.1,23.5a15.63,15.63,0,0,0,5.69,5.7,15.32,15.32,0,0,0,7.86,2.1,15.26,15.26,0,0,0,7.85-2.1,15.58,15.58,0,0,0,5.7-5.7,15.26,15.26,0,0,0,2.1-7.85A15.32,15.32,0,0,0,29.2,7.79Z"/><path class="cls-2" d="M17,19.29H14.1c0-.42,0-.67,0-.76a5.11,5.11,0,0,1,.47-2.33,7,7,0,0,1,1.88-2.06,14.69,14.69,0,0,0,1.68-1.5,2,2,0,0,0,.42-1.23,2.09,2.09,0,0,0-.75-1.61,2.9,2.9,0,0,0-2-.67,3,3,0,0,0-2,.7A3.64,3.64,0,0,0,12.59,12l-2.95-.36a4.86,4.86,0,0,1,1.74-3.47,6.14,6.14,0,0,1,4.25-1.43A6.42,6.42,0,0,1,20,8.13a4.39,4.39,0,0,1,1.63,3.37,3.69,3.69,0,0,1-.6,2,13.2,13.2,0,0,1-2.56,2.58,5.16,5.16,0,0,0-1.27,1.36A4.59,4.59,0,0,0,17,19.29ZM14.1,24.61V21.4h3.21v3.21Z"/></g></g></svg>