<svg xmlns="http://www.w3.org/2000/svg" viewBox="0 0 31.3 31.3"><defs><style>.cls-1{fill:#0a1735;}</style></defs><g id="Layer_2" data-name="Layer 2"><g id="Layer_1-2" data-name="Layer 1"><path class="cls-1" d="M29.46,25.78a3.69,3.69,0,0,1-3.69,3.69H5.52a3.69,3.69,0,0,1-3.69-3.69V5.53A3.69,3.69,0,0,1,5.52,1.84h7.76V0H5.52A5.52,5.52,0,0,0,0,5.53V25.78A5.52,5.52,0,0,0,5.52,31.3H25.77a5.53,5.53,0,0,0,5.52-5.52V18.34H29.46Z"/><path class="cls-1" d="M30.86.44C30.4,0,29.8,0,28.89,0h-7.1V1.84h6.37L15,15l1.29,1.29L29.46,3.14h0v6.2h1.83V2.41C31.31,1.5,31.32.9,30.86.44Z"/></g></g></svg>