<svg xmlns="http://www.w3.org/2000/svg" viewBox="0 0 47.7 47.7"><defs><style>.cls-1{fill:#fcc;}.cls-2{fill:#ff5a5a;}</style></defs><g id="Layer_2" data-name="Layer 2"><g id="Layer_1-2" data-name="Layer 1"><circle class="cls-1" cx="23.85" cy="23.85" r="23.85"/><path class="cls-2" d="M13.05,27.52h0l9.61,9.63a1.79,1.79,0,0,0,.26.2l.27.15.19.06h.14a1.72,1.72,0,0,0,.64,0h.28l.21-.11a2,2,0,0,0,.33-.24l9.65-9.69a1.64,1.64,0,0,0,0-2.33h0a1.69,1.69,0,0,0-2.33,0l-5.75,5.74a.63.63,0,0,1-.89,0,.64.64,0,0,1-.18-.43V11.75a1.65,1.65,0,1,0-3.29,0h0V30.49a.65.65,0,0,1-.64.62.67.67,0,0,1-.43-.18L15.4,25.19a1.68,1.68,0,0,0-2.34,0A1.64,1.64,0,0,0,13.05,27.52Z"/></g></g></svg>