<svg xmlns="http://www.w3.org/2000/svg" viewBox="0 0 36.69 34.4"><defs><style>.cls-1{fill:#0068ff;}</style></defs><g id="Layer_2" data-name="Layer 2"><g id="Layer_1-2" data-name="Layer 1"><path class="cls-1" d="M18.18,18.69l6.88,5.16A1.14,1.14,0,0,0,26.43,22L20.07,17.2V7.45a1.15,1.15,0,0,0-2.3,0V17.77a1.18,1.18,0,0,0,.41.92Z"/><path class="cls-1" d="M19.49,0A17.19,17.19,0,0,0,2.54,14.33l-.44-.65A1.15,1.15,0,1,0,.2,15l2.29,3.44a1.19,1.19,0,0,0,.84.51h.11a1.17,1.17,0,0,0,.81-.34l2.87-2.87a1.15,1.15,0,0,0-1.63-1.62l-.71.72A14.91,14.91,0,1,1,19.49,32.1,14.07,14.07,0,0,1,7.82,26.28,1.15,1.15,0,1,0,6,27.61a16.35,16.35,0,0,0,13.54,6.78A17.2,17.2,0,1,0,19.49,0Z"/></g></g></svg>