<svg xmlns="http://www.w3.org/2000/svg" viewBox="0 0 32.51 40.16"><defs><style>.cls-1{fill:#0068ff;fill-rule:evenodd;}</style></defs><g id="Layer_2" data-name="Layer 2"><g id="Layer_1-2" data-name="Layer 1"><path class="cls-1" d="M32.51,2.87A2.89,2.89,0,0,0,29.64,0h-21a1,1,0,0,0-.68.28L.28,7.93A1,1,0,0,0,0,8.61V37.29a2.89,2.89,0,0,0,2.87,2.87H29.64a2.89,2.89,0,0,0,2.87-2.87ZM30.6,37.29a.93.93,0,0,1-1,1H2.87a.93.93,0,0,1-1-1V9.56H6.69A2.88,2.88,0,0,0,9.56,6.69V1.91H29.64a.94.94,0,0,1,1,1Zm-23-30.6a.94.94,0,0,1-1,1H3.27L7.65,3.26Z"/><path class="cls-1" d="M21,13.83a1,1,0,0,0-1,.94.94.94,0,0,0,.93,1h1.56l-5.34,5.34-3.15-3.14a.94.94,0,0,0-1.35,0L7,23.67A1,1,0,0,0,8.34,25L13.4,20l3.14,3.15a1,1,0,0,0,1.36,0l6-6v1.52a1,1,0,0,0,1.91.05V14.79a1,1,0,0,0-.95-1Z"/><path class="cls-1" d="M24.43,23.89a1,1,0,0,0-.95,1v8.6a1,1,0,0,0,1.92,0v-8.6a1,1,0,0,0-.95-1Z"/><path class="cls-1" d="M16.24,27.71a1,1,0,0,0-.94,1h0v4.78a1,1,0,1,0,1.91,0V28.68a1,1,0,0,0-.94-1Z"/><path class="cls-1" d="M8.05,29.15a1,1,0,0,0-.94,1v3.34a1,1,0,1,0,1.91,0V30.12a1,1,0,0,0-.94-1Z"/></g></g></svg>