<svg xmlns="http://www.w3.org/2000/svg" viewBox="0 0 52.95 60"><defs><style>.cls-1{fill:#95bf47;}.cls-2{fill:#5e8e3e;}.cls-3{fill:#fff;}</style></defs><g id="Layer_2" data-name="Layer 2"><g id="Layer_1-2" data-name="Layer 1"><path class="cls-1" d="M46.38,11.55a.6.6,0,0,0-.53-.49L41.36,11,37.44,7.16A1.47,1.47,0,0,0,36.13,7l-1.8.56a12.19,12.19,0,0,0-.86-2.11C32.2,3,30.34,1.73,28.09,1.72h0c-.16,0-.31,0-.47,0s-.13-.16-.2-.23A4.74,4.74,0,0,0,23.66,0c-2.9.09-5.8,2.19-8.14,5.91a23.38,23.38,0,0,0-3.27,8.47L6.53,16.16c-1.69.53-1.74.58-2,2.17C4.41,19.53,0,53.61,0,53.61L36.94,60l16-4S46.42,11.86,46.38,11.55ZM32.48,8.12,29.61,9a15.74,15.74,0,0,0-.88-5.29C30.94,4.14,32,6.63,32.48,8.12Zm-4.8,1.49-6.17,1.91a14.63,14.63,0,0,1,3.12-6A6.31,6.31,0,0,1,26.72,4,13.76,13.76,0,0,1,27.68,9.61Zm-4-7.67a3,3,0,0,1,1.75.45,8.61,8.61,0,0,0-2.26,1.76,17,17,0,0,0-3.82,8l-5.07,1.57C15.32,9.07,19.24,2.07,23.72,1.94Z"/><path class="cls-2" d="M45.85,11.07c-.22,0-4.49-.09-4.49-.09L37.44,7.16a.89.89,0,0,0-.5-.23V60l16-4s-6.53-44.16-6.57-44.46A.57.57,0,0,0,45.85,11.07Z"/><path class="cls-3" d="M28.07,19.3l-1.86,7a10.68,10.68,0,0,0-4.54-.79c-3.6.23-3.64,2.51-3.6,3.08.19,3.11,8.38,3.79,8.84,11.08.36,5.73-3,9.65-7.95,10a11.91,11.91,0,0,1-9.12-3.1l1.25-5.3s3.26,2.46,5.87,2.29A2.31,2.31,0,0,0,19.21,41c-.26-4.06-6.92-3.82-7.34-10.49-.36-5.61,3.33-11.3,11.46-11.81A10,10,0,0,1,28.07,19.3Z"/></g></g></svg>